<mxfile host="app.diagrams.net" modified="2021-05-04T04:41:55.108Z" agent="5.0 (Windows NT 10.0; Win64; x64) AppleWebKit/537.36 (KHTML, like Gecko) Chrome/92.0.4474.0 Safari/537.36 Edg/92.0.873.1" etag="DfZbZ3l62dcV9tBkfbDK" version="14.6.9" type="github">
  <diagram id="GY1wR1ctG8Jj0OJJDLwF" name="Page-1">
    <mxGraphModel dx="942" dy="624" grid="1" gridSize="10" guides="1" tooltips="1" connect="1" arrows="1" fold="1" page="1" pageScale="1" pageWidth="827" pageHeight="1169" math="0" shadow="0">
      <root>
        <mxCell id="0" />
        <mxCell id="1" parent="0" />
        <mxCell id="LX0h06062_ws_X1BhVeB-3" value="" style="edgeStyle=orthogonalEdgeStyle;rounded=0;orthogonalLoop=1;jettySize=auto;html=1;" edge="1" parent="1" source="LX0h06062_ws_X1BhVeB-1" target="LX0h06062_ws_X1BhVeB-2">
          <mxGeometry relative="1" as="geometry" />
        </mxCell>
        <mxCell id="LX0h06062_ws_X1BhVeB-1" value="API" style="rounded=0;whiteSpace=wrap;html=1;" vertex="1" parent="1">
          <mxGeometry x="40" width="80" height="40" as="geometry" />
        </mxCell>
        <mxCell id="LX0h06062_ws_X1BhVeB-6" value="" style="edgeStyle=orthogonalEdgeStyle;rounded=0;orthogonalLoop=1;jettySize=auto;html=1;" edge="1" parent="1" source="LX0h06062_ws_X1BhVeB-2" target="LX0h06062_ws_X1BhVeB-4">
          <mxGeometry relative="1" as="geometry" />
        </mxCell>
        <mxCell id="LX0h06062_ws_X1BhVeB-7" value="" style="edgeStyle=orthogonalEdgeStyle;rounded=0;orthogonalLoop=1;jettySize=auto;html=1;" edge="1" parent="1" source="LX0h06062_ws_X1BhVeB-2" target="LX0h06062_ws_X1BhVeB-5">
          <mxGeometry relative="1" as="geometry" />
        </mxCell>
        <mxCell id="LX0h06062_ws_X1BhVeB-2" value="业务逻辑" style="rounded=0;whiteSpace=wrap;html=1;" vertex="1" parent="1">
          <mxGeometry x="40" y="80" width="80" height="40" as="geometry" />
        </mxCell>
        <mxCell id="LX0h06062_ws_X1BhVeB-4" value="数据访问" style="rounded=0;whiteSpace=wrap;html=1;" vertex="1" parent="1">
          <mxGeometry x="40" y="160" width="80" height="40" as="geometry" />
        </mxCell>
        <mxCell id="LX0h06062_ws_X1BhVeB-5" value="通用模块" style="rounded=0;whiteSpace=wrap;html=1;" vertex="1" parent="1">
          <mxGeometry x="200" y="80" width="80" height="40" as="geometry" />
        </mxCell>
        <mxCell id="LX0h06062_ws_X1BhVeB-9" value="" style="edgeStyle=segmentEdgeStyle;endArrow=classic;html=1;exitX=1;exitY=0.5;exitDx=0;exitDy=0;entryX=0.5;entryY=0;entryDx=0;entryDy=0;" edge="1" parent="1" source="LX0h06062_ws_X1BhVeB-1" target="LX0h06062_ws_X1BhVeB-5">
          <mxGeometry width="50" height="50" relative="1" as="geometry">
            <mxPoint x="130" y="50" as="sourcePoint" />
            <mxPoint x="180" as="targetPoint" />
          </mxGeometry>
        </mxCell>
        <mxCell id="LX0h06062_ws_X1BhVeB-10" value="" style="edgeStyle=segmentEdgeStyle;endArrow=classic;html=1;exitX=1;exitY=0.5;exitDx=0;exitDy=0;entryX=0.5;entryY=1;entryDx=0;entryDy=0;" edge="1" parent="1" source="LX0h06062_ws_X1BhVeB-4" target="LX0h06062_ws_X1BhVeB-5">
          <mxGeometry width="50" height="50" relative="1" as="geometry">
            <mxPoint x="140" y="200" as="sourcePoint" />
            <mxPoint x="190" y="150" as="targetPoint" />
          </mxGeometry>
        </mxCell>
        <mxCell id="LX0h06062_ws_X1BhVeB-73" value="" style="group" vertex="1" connectable="0" parent="1">
          <mxGeometry x="319" width="201" height="160" as="geometry" />
        </mxCell>
        <mxCell id="LX0h06062_ws_X1BhVeB-61" value="" style="rounded=0;whiteSpace=wrap;html=1;" vertex="1" parent="LX0h06062_ws_X1BhVeB-73">
          <mxGeometry width="201" height="160" as="geometry" />
        </mxCell>
        <mxCell id="LX0h06062_ws_X1BhVeB-62" value="" style="line;strokeWidth=1.1;direction=south;html=1;perimeter=backbonePerimeter;points=[];outlineConnect=0;" vertex="1" parent="LX0h06062_ws_X1BhVeB-73">
          <mxGeometry x="116.36842105263158" width="10.578947368421051" height="160" as="geometry" />
        </mxCell>
        <mxCell id="LX0h06062_ws_X1BhVeB-63" value="" style="line;strokeWidth=1.1;html=1;perimeter=backbonePerimeter;points=[];outlineConnect=0;" vertex="1" parent="LX0h06062_ws_X1BhVeB-73">
          <mxGeometry y="43.63636363636364" width="121.6578947368421" height="14.545454545454547" as="geometry" />
        </mxCell>
        <mxCell id="LX0h06062_ws_X1BhVeB-64" value="" style="line;strokeWidth=1.1;html=1;perimeter=backbonePerimeter;points=[];outlineConnect=0;" vertex="1" parent="LX0h06062_ws_X1BhVeB-73">
          <mxGeometry y="101.81818181818183" width="121.6578947368421" height="14.545454545454547" as="geometry" />
        </mxCell>
        <mxCell id="LX0h06062_ws_X1BhVeB-65" value="API" style="text;html=1;strokeColor=none;fillColor=none;align=center;verticalAlign=middle;whiteSpace=wrap;rounded=0;" vertex="1" parent="LX0h06062_ws_X1BhVeB-73">
          <mxGeometry x="31.736842105263158" y="14.545454545454547" width="50.77894736842105" height="29.090909090909093" as="geometry" />
        </mxCell>
        <mxCell id="LX0h06062_ws_X1BhVeB-68" value="业务逻辑" style="text;html=1;strokeColor=none;fillColor=none;align=center;verticalAlign=middle;whiteSpace=wrap;rounded=0;" vertex="1" parent="LX0h06062_ws_X1BhVeB-73">
          <mxGeometry x="27.505263157894735" y="65.45454545454545" width="59.242105263157896" height="29.090909090909093" as="geometry" />
        </mxCell>
        <mxCell id="LX0h06062_ws_X1BhVeB-69" value="数据访问" style="text;html=1;strokeColor=none;fillColor=none;align=center;verticalAlign=middle;whiteSpace=wrap;rounded=0;" vertex="1" parent="LX0h06062_ws_X1BhVeB-73">
          <mxGeometry x="27.505263157894735" y="116.36363636363637" width="65.58947368421052" height="29.090909090909093" as="geometry" />
        </mxCell>
        <mxCell id="LX0h06062_ws_X1BhVeB-71" value="通用模块" style="text;html=1;strokeColor=none;fillColor=none;align=center;verticalAlign=middle;whiteSpace=wrap;rounded=0;" vertex="1" parent="LX0h06062_ws_X1BhVeB-73">
          <mxGeometry x="137.52631578947367" y="65.45454545454545" width="52.89473684210526" height="29.090909090909093" as="geometry" />
        </mxCell>
      </root>
    </mxGraphModel>
  </diagram>
</mxfile>
